<svg height="503pt" viewBox="0 0 503 503.88417" width="503pt" xmlns="http://www.w3.org/2000/svg"><path d="m243.425781 52.628906c0 28.757813-23.3125 52.070313-52.070312 52.070313-28.753907 0-52.066407-23.3125-52.066407-52.070313 0-28.753906 23.3125-52.066406 52.066407-52.066406 28.757812 0 52.070312 23.3125 52.070312 52.066406zm0 0" fill="#fdd7ad"/><path d="m217.390625 139.410156-26.035156 34.710938-26.03125-34.710938h-34.710938c-33.550781 0-60.746093 27.195313-60.746093 60.746094v78.101562h242.980468v-78.101562c0-33.550781-27.195312-60.746094-60.746094-60.746094zm0 0" fill="#b0d3f0"/><path d="m191.355469 35.273438c0 4.792968-3.882813 8.679687-8.675781 8.679687-4.792969 0-8.679688-3.886719-8.679688-8.679687 0-4.792969 3.886719-8.675782 8.679688-8.675782 4.792968 0 8.675781 3.882813 8.675781 8.675782zm0 0" fill="#fff"/><path d="m17.796875 278.257812h355.796875c9.585938 0 17.355469 7.769532 17.355469 17.355469 0 9.585938-7.769531 17.355469-17.355469 17.355469h-355.796875c-9.585937 0-17.355469-7.769531-17.355469-17.355469 0-9.585937 7.769532-17.355469 17.355469-17.355469zm0 0" fill="#a5a5a4"/><path d="m17.796875 312.96875h347.121094v173.558594c0 9.585937-7.773438 17.355468-17.355469 17.355468h-312.410156c-9.582032 0-17.355469-7.769531-17.355469-17.355468zm0 0" fill="#d1d4d1"/><path d="m503.765625 18.683594v93.375c-.363281 10.613281-9.222656 18.949218-19.839844 18.671875l-66.941406.554687-42.574219 40.085938c-6.246094 5.882812-13.214844 1.734375-13.214844-6.605469v-33.480469h-37.1875c-10.617187.28125-19.472656-8.058594-19.835937-18.671875v-93.375c.363281-10.617187 9.21875-18.953125 19.835937-18.675781l159.917969-.5546875c10.617188-.2773435 19.476563 8.0585935 19.839844 18.6757815zm0 0" fill="#2fa8cc"/><path d="m252.101562 399.75v17.355469c0 4.792969-3.882812 8.675781-8.675781 8.675781h-26.035156c-4.792969 0-8.675781 3.886719-8.675781 8.679688v26.035156c0 4.789062-3.886719 8.675781-8.679688 8.675781h-17.355468c-4.792969 0-8.679688-3.886719-8.679688-8.675781v-26.035156c0-4.792969-3.882812-8.679688-8.675781-8.679688h-26.035157c-4.792968 0-8.675781-3.882812-8.675781-8.675781v-17.355469c0-4.792969 3.882813-8.679688 8.675781-8.679688h26.035157c4.792969 0 8.675781-3.886718 8.675781-8.675781v-26.035156c0-4.792969 3.886719-8.679687 8.679688-8.679687h17.355468c4.792969 0 8.679688 3.886718 8.679688 8.679687v26.035156c0 4.789063 3.882812 8.675781 8.675781 8.675781h26.035156c4.792969 0 8.675781 3.886719 8.675781 8.679688zm0 0" fill="#c03a2b"/><g fill="#fff"><path d="m52.511719 408.425781c-4.792969 0-8.679688-3.882812-8.679688-8.675781v-52.070312c0-4.792969 3.886719-8.675782 8.679688-8.675782 4.789062 0 8.675781 3.882813 8.675781 8.675782v52.070312c0 4.792969-3.886719 8.675781-8.675781 8.675781zm0 0"/><path d="m61.1875 434.460938c0 4.792968-3.886719 8.675781-8.675781 8.675781-4.792969 0-8.679688-3.882813-8.679688-8.675781 0-4.792969 3.886719-8.679688 8.679688-8.679688 4.789062 0 8.675781 3.886719 8.675781 8.679688zm0 0"/><path d="m347.5625 35.273438c0 4.792968-3.886719 8.679687-8.679688 8.679687-4.792968 0-8.679687-3.886719-8.679687-8.679687 0-4.792969 3.886719-8.675782 8.679687-8.675782 4.792969 0 8.679688 3.882813 8.679688 8.675782zm0 0"/><path d="m338.882812 96.019531c-4.792968 0-8.679687-3.886719-8.679687-8.675781v-17.359375c0-4.792969 3.886719-8.675781 8.679687-8.675781 4.792969 0 8.679688 3.882812 8.679688 8.675781v17.359375c0 4.789062-3.886719 8.675781-8.679688 8.675781zm0 0"/></g><path d="m208.714844 243.546875c-4.792969 0-8.679688-3.886719-8.679688-8.679687v-34.710938c0-4.792969 3.886719-8.679688 8.679688-8.679688 4.792968 0 8.675781 3.886719 8.675781 8.679688v34.710938c0 4.792968-3.882813 8.679687-8.675781 8.679687zm0 0" fill="#c03a2b"/><path d="m226.070312 226.1875h-34.714843c-4.789063 0-8.675781-3.882812-8.675781-8.675781s3.886718-8.679688 8.675781-8.679688h34.714843c4.792969 0 8.675782 3.886719 8.675782 8.679688s-3.882813 8.675781-8.675782 8.675781zm0 0" fill="#c03a2b"/><path d="m121.933594 278.257812c-4.792969 0-8.679688-3.886718-8.679688-8.679687v-69.421875c0-4.792969 3.886719-8.679688 8.679688-8.679688 4.792968 0 8.679687 3.886719 8.679687 8.679688v69.421875c0 4.792969-3.886719 8.679687-8.679687 8.679687zm0 0" fill="#90bae1"/><path d="m260.78125 278.257812c-4.792969 0-8.679688-3.886718-8.679688-8.679687v-69.421875c0-4.792969 3.886719-8.679688 8.679688-8.679688s8.679688 3.886719 8.679688 8.679688v69.421875c0 4.792969-3.886719 8.679687-8.679688 8.679687zm0 0" fill="#90bae1"/><path d="m399.628906 104.699219h-.617187c-2.511719-.183594-4.820313-1.453125-6.324219-3.472657l-26.035156-34.710937c-1.859375-2.480469-2.257813-5.765625-1.039063-8.617187 1.21875-2.851563 3.867188-4.835938 6.941407-5.207032 3.078124-.371094 6.121093.929688 7.980468 3.410156l20.03125 26.710938 53.671875-53.671875c2.179688-2.257813 5.40625-3.164063 8.441407-2.367187 3.03125.792968 5.402343 3.164062 6.195312 6.195312.796875 3.035156-.109375 6.261719-2.367188 8.441406l-60.742187 60.746094c-1.628906 1.625-3.835937 2.539062-6.136719 2.542969zm0 0" fill="#4c8056"/></svg>