<svg height="512pt" viewBox="0 0 512 512" width="512pt" xmlns="http://www.w3.org/2000/svg"><path d="m466.363281 105.929688h10.328125c10.339844.644531 18.226563 9.515624 17.652344 19.863281v59.585937h-476.6875v-59.585937c-.574219-10.347657 7.3125-19.21875 17.652344-19.863281zm0 0" fill="#2fa8cc"/><path d="m79.449219 0h353.101562c14.628907 0 26.484375 11.855469 26.484375 26.484375v105.929687c0 4.875-3.953125 8.828126-8.828125 8.828126h-388.414062c-4.875 0-8.828125-3.953126-8.828125-8.828126v-105.929687c0-14.628906 11.855468-26.484375 26.484375-26.484375zm0 0" fill="#3f5c6c"/><g fill="#ecf0f1"><path d="m88.277344 114.757812c-4.875 0-8.828125-3.953124-8.828125-8.828124v-70.621094c0-4.875 3.953125-8.824219 8.828125-8.824219s8.824218 3.949219 8.824218 8.824219v70.621094c0 4.875-3.949218 8.828124-8.824218 8.828124zm0 0"/><path d="m101.515625 88.277344h-13.238281c-4.875 0-8.828125-3.953125-8.828125-8.828125v-44.140625c0-4.875 3.953125-8.824219 8.828125-8.824219h13.238281c17.066406 0 30.898437 13.832031 30.898437 30.894531s-13.832031 30.898438-30.898437 30.898438zm-4.414063-17.65625h4.414063c7.316406 0 13.242187-5.929688 13.242187-13.242188s-5.925781-13.242187-13.242187-13.242187h-4.414063zm0 0"/><path d="m176.550781 114.757812c-14.625 0-26.480469-11.855468-26.480469-26.480468v-35.3125c0-14.625 11.855469-26.480469 26.480469-26.480469 14.628907 0 26.484375 11.855469 26.484375 26.480469v35.3125c0 14.625-11.855468 26.480468-26.484375 26.480468zm0-70.621093c-4.875 0-8.828125 3.953125-8.828125 8.828125v35.3125c0 4.875 3.953125 8.824218 8.828125 8.824218s8.828125-3.949218 8.828125-8.824218v-35.3125c0-4.875-3.953125-8.828125-8.828125-8.828125zm0 0"/><path d="m247.171875 114.757812h-17.65625c-4.875 0-8.824219-3.953124-8.824219-8.828124v-70.621094c0-4.875 3.949219-8.824219 8.824219-8.824219 4.878906 0 8.828125 3.949219 8.828125 8.824219v61.792968h8.828125c4.875 0 8.828125 3.953126 8.828125 8.828126s-3.953125 8.828124-8.828125 8.828124zm0 0"/><path d="m282.484375 114.757812c-4.878906 0-8.828125-3.953124-8.828125-8.828124v-70.621094c0-4.875 3.949219-8.824219 8.828125-8.824219 4.875 0 8.824219 3.949219 8.824219 8.824219v70.621094c0 4.875-3.949219 8.828124-8.824219 8.828124zm0 0"/><path d="m423.722656 114.757812h-35.308594c-4.875 0-8.828124-3.953124-8.828124-8.828124v-70.621094c0-4.875 3.953124-8.824219 8.828124-8.824219h35.308594c4.875 0 8.828125 3.949219 8.828125 8.824219 0 4.878906-3.953125 8.828125-8.828125 8.828125h-26.480468v52.964843h26.480468c4.875 0 8.828125 3.953126 8.828125 8.828126s-3.953125 8.828124-8.828125 8.828124zm0 0"/><path d="m335.449219 114.757812c-14.628907 0-26.484375-11.855468-26.484375-26.480468v-35.3125c0-14.625 11.855468-26.480469 26.484375-26.480469 14.59375.070313 26.410156 11.886719 26.480469 26.480469 0 4.875-3.949219 8.828125-8.828126 8.828125-4.875 0-8.824218-3.953125-8.824218-8.828125.015625-2.300782-.898438-4.507813-2.535156-6.125-1.636719-1.730469-3.914063-2.707032-6.292969-2.703125-4.875 0-8.828125 3.953125-8.828125 8.828125v35.3125c0 4.875 3.953125 8.824218 8.828125 8.824218s8.828125-3.949218 8.828125-8.824218 3.949218-8.828125 8.824218-8.828125c4.878907 0 8.828126 3.953125 8.828126 8.828125 0 14.625-11.855469 26.480468-26.480469 26.480468zm0 0"/><path d="m423.722656 79.449219h-35.308594c-4.875 0-8.828124-3.953125-8.828124-8.828125s3.953124-8.828125 8.828124-8.828125h35.308594c4.875 0 8.828125 3.953125 8.828125 8.828125s-3.953125 8.828125-8.828125 8.828125zm0 0"/><path d="m247.171875 114.757812h-17.65625c-4.875 0-8.824219-3.953124-8.824219-8.828124s3.949219-8.828126 8.824219-8.828126h17.65625c4.875 0 8.828125 3.953126 8.828125 8.828126s-3.953125 8.828124-8.828125 8.828124zm0 0"/><path d="m423.722656 114.757812h-35.308594c-4.875 0-8.828124-3.953124-8.828124-8.828124s3.953124-8.828126 8.828124-8.828126h35.308594c4.875 0 8.828125 3.953126 8.828125 8.828126s-3.953125 8.828124-8.828125 8.828124zm0 0"/></g><path d="m17.65625 176.550781h476.6875c9.75 0 17.65625 7.90625 17.65625 17.65625v300.136719c0 9.75-7.90625 17.65625-17.65625 17.65625h-476.6875c-9.75 0-17.65625-7.90625-17.65625-17.65625v-300.136719c0-9.75 7.90625-17.65625 17.65625-17.65625zm0 0" fill="#7f8c8d"/><path d="m300.136719 379.585938h-88.273438c-9.75 0-17.65625 7.90625-17.65625 17.65625v114.757812h123.585938v-114.757812c0-9.75-7.90625-17.65625-17.65625-17.65625zm0 0" fill="#cbb292"/><path d="m211.863281 379.585938h44.136719v132.414062h-61.792969v-114.757812c0-9.75 7.90625-17.65625 17.65625-17.65625zm0 0" fill="#7f6e5d"/><path d="m315.234375 277.378906-6.269531-17.378906-3.617188-13.429688c-.515625-1.894531-.28125-3.914062.660156-5.640624l4.195313-7.730469c1.839844-3.480469.820313-7.789063-2.386719-10.074219l-12.09375-8.957031c-2.871094-2.101563-6.6875-2.386719-9.839844-.742188-8.066406 3.722657-17.390624 3.570313-25.328124-.417969l-.609376-.28125c-2.503906-1.15625-5.386718-1.15625-7.890624 0l-.609376.28125c-7.9375 3.988282-17.261718 4.140626-25.328124.417969-3.152344-1.644531-6.96875-1.359375-9.839844.742188l-12.09375 8.957031c-3.207032 2.285156-4.226563 6.59375-2.386719 10.074219l4.195313 7.730469c.941406 1.726562 1.175781 3.746093.660156 5.640624l-3.617188 13.429688-6.269531 17.378906c-1.683594 4.730469-2.550781 9.714844-2.558594 14.734375v1.273438c.03125 7.667969 2.269531 15.164062 6.445313 21.597656 4.589844 6.945313 11.023437 12.472656 18.582031 15.960937l1.410156.652344c2.863281 1.328125 5.851563 2.351563 8.925781 3.066406l5.597657 1.3125c5 1.132813 9.773437 3.09375 14.125 5.808594l1.824219 1.121094c3 1.828125 6.765624 1.828125 9.765624 0l1.824219-1.121094c4.351563-2.714844 9.125-4.675781 14.125-5.808594l5.597657-1.3125c3.074218-.714843 6.0625-1.738281 8.925781-3.066406l1.410156-.652344c7.558594-3.488281 13.992187-9.015624 18.582031-15.960937 4.175782-6.433594 6.414063-13.929687 6.445313-21.597656v-1.273438c-.007813-5.019531-.875-10.003906-2.558594-14.734375zm0 0" fill="#e4c05c"/><path d="m273.65625 273.65625c0 9.75-7.90625 17.652344-17.65625 17.652344s-17.65625-7.902344-17.65625-17.652344 7.90625-17.65625 17.65625-17.65625 17.65625 7.90625 17.65625 17.65625zm0 0" fill="#f9eab0"/><path d="m44.136719 423.722656h26.484375c4.875 0 8.828125 3.953125 8.828125 8.828125v26.484375c0 4.875-3.953125 8.828125-8.828125 8.828125h-26.484375c-4.875 0-8.828125-3.953125-8.828125-8.828125v-26.484375c0-4.875 3.953125-8.828125 8.828125-8.828125zm0 0" fill="#b0d3f0"/><path d="m123.585938 423.722656h26.484374c4.875 0 8.828126 3.953125 8.828126 8.828125v26.484375c0 4.875-3.953126 8.828125-8.828126 8.828125h-26.484374c-4.875 0-8.828126-3.953125-8.828126-8.828125v-26.484375c0-4.875 3.953126-8.828125 8.828126-8.828125zm0 0" fill="#90bae1"/><path d="m44.136719 335.449219h26.484375c4.875 0 8.828125 3.953125 8.828125 8.828125v26.480468c0 4.875-3.953125 8.828126-8.828125 8.828126h-26.484375c-4.875 0-8.828125-3.953126-8.828125-8.828126v-26.480468c0-4.875 3.953125-8.828125 8.828125-8.828125zm0 0" fill="#90bae1"/><path d="m123.585938 335.449219h26.484374c4.875 0 8.828126 3.953125 8.828126 8.828125v26.480468c0 4.875-3.953126 8.828126-8.828126 8.828126h-26.484374c-4.875 0-8.828126-3.953126-8.828126-8.828126v-26.480468c0-4.875 3.953126-8.828125 8.828126-8.828125zm0 0" fill="#b0d3f0"/><path d="m44.136719 247.171875h26.484375c4.875 0 8.828125 3.953125 8.828125 8.828125v26.484375c0 4.875-3.953125 8.824219-8.828125 8.824219h-26.484375c-4.875 0-8.828125-3.949219-8.828125-8.824219v-26.484375c0-4.875 3.953125-8.828125 8.828125-8.828125zm0 0" fill="#b0d3f0"/><path d="m123.585938 247.171875h26.484374c4.875 0 8.828126 3.953125 8.828126 8.828125v26.484375c0 4.875-3.953126 8.824219-8.828126 8.824219h-26.484374c-4.875 0-8.828126-3.949219-8.828126-8.824219v-26.484375c0-4.875 3.953126-8.828125 8.828126-8.828125zm0 0" fill="#90bae1"/><path d="m361.929688 423.722656h26.484374c4.875 0 8.828126 3.953125 8.828126 8.828125v26.484375c0 4.875-3.953126 8.828125-8.828126 8.828125h-26.484374c-4.875 0-8.828126-3.953125-8.828126-8.828125v-26.484375c0-4.875 3.953126-8.828125 8.828126-8.828125zm0 0" fill="#90bae1"/><path d="m441.378906 423.722656h26.484375c4.875 0 8.828125 3.953125 8.828125 8.828125v26.484375c0 4.875-3.953125 8.828125-8.828125 8.828125h-26.484375c-4.875 0-8.828125-3.953125-8.828125-8.828125v-26.484375c0-4.875 3.953125-8.828125 8.828125-8.828125zm0 0" fill="#b0d3f0"/><path d="m361.929688 335.449219h26.484374c4.875 0 8.828126 3.953125 8.828126 8.828125v26.480468c0 4.875-3.953126 8.828126-8.828126 8.828126h-26.484374c-4.875 0-8.828126-3.953126-8.828126-8.828126v-26.480468c0-4.875 3.953126-8.828125 8.828126-8.828125zm0 0" fill="#b0d3f0"/><path d="m441.378906 335.449219h26.484375c4.875 0 8.828125 3.953125 8.828125 8.828125v26.480468c0 4.875-3.953125 8.828126-8.828125 8.828126h-26.484375c-4.875 0-8.828125-3.953126-8.828125-8.828126v-26.480468c0-4.875 3.953125-8.828125 8.828125-8.828125zm0 0" fill="#90bae1"/><path d="m361.929688 247.171875h26.484374c4.875 0 8.828126 3.953125 8.828126 8.828125v26.484375c0 4.875-3.953126 8.824219-8.828126 8.824219h-26.484374c-4.875 0-8.828126-3.949219-8.828126-8.824219v-26.484375c0-4.875 3.953126-8.828125 8.828126-8.828125zm0 0" fill="#90bae1"/><path d="m441.378906 247.171875h26.484375c4.875 0 8.828125 3.953125 8.828125 8.828125v26.484375c0 4.875-3.953125 8.824219-8.828125 8.824219h-26.484375c-4.875 0-8.828125-3.949219-8.828125-8.824219v-26.484375c0-4.875 3.953125-8.828125 8.828125-8.828125zm0 0" fill="#b0d3f0"/><path d="m291.308594 450.207031c0 4.875-3.949219 8.828125-8.824219 8.828125-4.878906 0-8.828125-3.953125-8.828125-8.828125s3.949219-8.828125 8.828125-8.828125c4.875 0 8.824219 3.953125 8.824219 8.828125zm0 0" fill="#5e5f62"/><path d="m238.34375 450.207031c0 4.875-3.949219 8.828125-8.828125 8.828125-4.875 0-8.824219-3.953125-8.824219-8.828125s3.949219-8.828125 8.824219-8.828125c4.878906 0 8.828125 3.953125 8.828125 8.828125zm0 0" fill="#5e5f62"/><path d="m114.757812 220.691406h-70.621093c-4.875 0-8.828125-3.953125-8.828125-8.828125s3.953125-8.828125 8.828125-8.828125h70.621093c4.875 0 8.828126 3.953125 8.828126 8.828125s-3.953126 8.828125-8.828126 8.828125zm0 0" fill="#3f5c6c"/><path d="m158.898438 220.691406h-8.828126c-4.875 0-8.828124-3.953125-8.828124-8.828125s3.953124-8.828125 8.828124-8.828125h8.828126c4.875 0 8.824218 3.953125 8.824218 8.828125s-3.949218 8.828125-8.824218 8.828125zm0 0" fill="#3f5c6c"/><path d="m476.691406 220.691406h-123.589844c-4.875 0-8.824218-3.953125-8.824218-8.828125s3.949218-8.828125 8.824218-8.828125h123.589844c4.875 0 8.824219 3.953125 8.824219 8.828125s-3.949219 8.828125-8.824219 8.828125zm0 0" fill="#3f5c6c"/></svg>